<svg version="1" xmlns="http://www.w3.org/2000/svg" width="1045.333" height="1045.333" viewBox="0 0 784.000000 784.000000"><path d="M376.3 1.5c-3.9.7-9.5 2-12.5 3-6.6 2.1-19.2 7.7-19.6 8.7-.2.5-.7.8-1.2.8s-4.3 2-8.4 4.5c-4.2 2.5-7.9 4.5-8.2 4.5-.3 0-1.8.8-3.2 1.9-1.5 1-4.7 2.9-7.2 4.3-5.2 2.9-8.2 4.6-20.3 11.7-4.9 2.8-9.3 5.1-9.8 5.1s-.9.4-.9.9-.6 1.1-1.3 1.3c-1 .2-28.8 16-38.7 21.9-.8.5-5.5 3.1-10.5 5.9-4.9 2.8-9.7 5.5-10.5 6-1.8 1.1-23.9 13.8-29 16.8l-18.5 10.7c-8.2 4.8-16.8 9.7-19 11-2.2 1.2-6.7 3.7-10 5.5-3.3 1.8-6.1 3.7-6.3 4.2-.2.4-.7.8-1.2.8-2.2 0-58.2 33-63 37.1-11.4 9.9-16.5 15.6-22.7 25.9-4.2 7-7.6 14.1-7.1 15.1.2.3-.2 1.2-.8 2-1.2 1.4-3.6 9.3-5.1 16.4-1 4.9-1.1 322.4-.1 328 .4 2.2 1.2 5.6 1.8 7.5.6 1.9 1.3 4.5 1.6 5.8 1.9 9.1 13.7 29 22.8 38.3 5.6 5.8 16.9 14.7 21.6 17.1 1.4.7 5.3 3 8.8 5 3.4 2.1 6.5 3.8 6.7 3.8.3 0 2.2 1.1 4.3 2.4 2 1.3 11.6 6.9 21.2 12.4s19.1 11 21 12.1c1.9 1.1 4.2 2.4 5 2.8.8.3 2.6 1.4 4 2.3 1.4.9 5 3 8 4.7 3 1.6 11 6.2 17.8 10.1 6.8 4 12.7 7.2 13.2 7.2.6 0 1 .4 1 .8s1.2 1.3 2.8 1.9c1.5.7 3.4 1.7 4.2 2.3 2 1.3 35.1 20.4 37 21.3.8.4 3.8 2.1 6.5 3.7 2.8 1.7 6.1 3.6 7.5 4.3 1.4.6 3.1 1.7 3.8 2.4.7.7 2 1.3 2.8 1.3.8 0 1.4.3 1.4.7 0 .5 1 1.3 2.3 1.9 4.9 2.3 11.2 5.9 11.5 6.6.2.5.8.8 1.2.8.5 0 3.3 1.4 6.2 3.1 5.9 3.5 7.2 4.3 20.8 12 5.2 2.9 9.7 5.6 10 5.9.3.3 1.6 1.1 3 1.8 3 1.5 9.6 5.2 17.2 9.8 3.1 1.9 6.1 3.4 6.7 3.4.6 0 1.1.4 1.1 1 0 .5.9 1 2 1s2 .4 2 1c0 .5.9 1 2 1s2 .5 2 1c0 .6.3.9.8.8.4 0 1.4.1 2.2.5 1.8.7 10.5 3.3 14 4.1 5.5 1.4 12 2 22 2.1 11.9 0 18.8-.8 24.8-2.9 2.3-.8 4.2-1.3 4.2-1.1 0 .7 15.9-6.2 18.8-8.2 1.5-.9 4.1-2.4 5.7-3.3 1.7-.9 10.7-6 20-11.5 9.4-5.4 19.7-11.4 23-13.3 3.3-1.9 7.6-4.4 9.5-5.5 1.9-1.1 4.9-2.8 6.5-3.8 1.7-1.1 3.7-2.2 4.5-2.6.8-.4 4.8-2.6 8.8-5 4-2.4 7.7-4.3 8.2-4.3.6 0 1-.5 1-1 0-.6.4-1 .9-1s10.2-5.4 21.6-12c11.3-6.6 20.8-12 21-12 .2 0 2.4-1.4 4.8-3 2.5-1.7 4.7-3 5-3 .4 0 15.7-8.7 22.7-12.9 1.7-1 41.9-24.3 48.4-27.9 2.2-1.3 6.2-3.7 8.9-5.3 2.6-1.6 4.9-2.9 5.2-2.9.3 0 3.3-1.7 6.7-3.8 3.5-2.1 7-4.1 7.8-4.5.8-.4 2.9-1.6 4.5-2.6 1.7-1.1 4.8-2.9 7-4.1 9.5-5.2 24.4-17.7 30-25.2 5.1-6.8 6.5-9 9-13.3 3.3-5.9 8.9-20.6 9.9-25.5.3-1.9.8-4.6 1.1-6 .3-1.4.7-5.9 1-10 .2-4.1.6-8.5.9-9.7.3-1.3.1-2.5-.3-2.7-.8-.6-.6-6 .4-7.5.3-.6.3-1.1-.2-1.1-.4 0-.7-2.4-.6-5.2 0-2.9.2-5.3.3-5.3.5 0 .6-4.6 0-5-.8-.5-.6-4.8.3-6.2.4-.7.4-1.4 0-1.6-.7-.4-.9-11.2-.3-11.2.5 0 .6-4.7 0-5-.8-.5-.5-6 .5-7.4.3-.6.3-1.1-.2-1.1-.4 0-.7-2.4-.6-5.3 0-2.8.2-5.2.3-5.2.5 0 .6-4.6 0-5-.8-.5-.6-4.8.3-6.2.4-.7.4-1.4-.1-1.7-.9-.5-.9-4.7.1-6.3.4-.7.4-1.4-.1-1.7-.9-.5-.9-4.7.1-6.3.4-.7.4-1.4-.1-1.7-.9-.5-.9-4.7.1-6.3.4-.7.4-1.4-.1-1.7-.9-.5-.9-4.7.1-6.3.4-.7.4-1.4-.1-1.7-.9-.5-.9-4.7.1-6.3.4-.7.4-1.4-.1-1.7-.9-.5-.9-4.7.1-6.3.4-.7.4-1.4 0-1.6-.7-.4-.9-11.2-.3-11.2.5 0 .6-4.7 0-5-.8-.5-.5-6 .5-7.4.3-.6.3-1.1-.2-1.1-.4 0-.7-2.4-.6-5.3 0-2.8.2-5.2.3-5.2.5 0 .6-4.6 0-5-.8-.5-.6-4.8.3-6.2.4-.7.4-1.4-.1-1.7-.9-.5-.9-4.7.1-6.3.4-.7.4-1.4-.1-1.7-.9-.5-.9-4.7.1-6.3.4-.7.4-1.4-.1-1.7-.9-.5-.9-4.7.1-6.3.4-.7.4-1.4-.1-1.7-.9-.5-.9-4.7.1-6.3.4-.7.4-1.4-.1-1.7-.9-.5-.9-4.7.1-6.3.4-.7.4-1.4-.1-1.7-.9-.5-.9-4.7.1-6.3.4-.7.4-1.4 0-1.6-.7-.4-.9-11.2-.3-11.2.5 0 .6-4.7 0-5-.8-.5-.5-6 .5-7.4.3-.6.3-1.1-.2-1.1-.7 0-.9-9.9-.3-10.8.3-.3.3-4.1 0-4.5-.6-.8-.4-5.9.2-6.3.5-.3.5-1 .1-1.6-.9-1.6-1-11.8 0-11.8.5 0 .5-.5.2-1-.4-.6-.8-4.8-1-9.3-.5-9.4-.9-12.8-2.6-18.9-.6-2.4-1.1-4.4-1-4.5.4-1.5-8.8-21.6-10.1-22.1-.4-.2-.8-1-.8-1.8s-.4-1.4-.8-1.4c-.5 0-1.4-1.1-2-2.5-.7-1.4-1.8-3.3-2.4-4.1-3.5-4.2-14.8-15.3-18.3-17.9-2.2-1.6-4.2-3.2-4.5-3.5-.3-.3-1.6-1.1-3-1.8s-4.3-2.4-6.5-3.8c-2.2-1.3-5.2-3-6.7-3.6-1.6-.7-2.8-1.6-2.8-2 0-.4-.5-.8-1-.8-.6 0-2.7-1.1-4.8-2.3-2-1.3-5.7-3.5-8.2-4.9-5.3-3-22-12.6-30.5-17.6-3.3-1.9-7.8-4.4-10-5.6-2.2-1.1-4.4-2.5-5-2.9-2.3-1.8-42.6-24.7-43.5-24.7-.6 0-1-.4-1-.9s-.8-1.1-1.7-1.4c-1-.4-3.8-1.8-6.3-3.3C550.9 76.1 543.8 72 543.4 72c-.2 0-2.3-1.2-4.7-2.7-2.3-1.4-6.7-4-9.7-5.6-3-1.6-6.2-3.6-7.1-4.3-.8-.8-1.8-1.4-2.2-1.4-.3 0-5.6-2.9-11.7-6.5S496.6 45 496.3 45c-.4 0-1.4-.6-2.2-1.4-.9-.7-4.7-3.1-8.6-5.1-3.8-2.1-7.4-4.1-8-4.5-.5-.5-2.7-1.7-4.7-2.9-2.1-1.2-5.3-2.9-7-4-26.2-15.2-39.4-21.9-45-23-.5 0-.9-.1-1-.2-11.1-3.4-31.4-4.5-43.5-2.4zm95.2 162.9c6.1.3 12.1.8 13.5 1.1 4.5.9 8.4 1.7 11.2 2 17.3 2.4 46.2 16.1 58.3 27.9 1.3 1.1 3.1 2.8 4.1 3.7 6.4 5.6 17.7 20.7 22 29.3 5.2 10.3-1.8 9.1 54.7 9.1 27.5 0 50.1.3 50.2.6.2.3-1.9 2.3-4.8 4.5-2.8 2.1-7 5.5-9.3 7.4-4.7 4-6.1 5.1-12.4 10-2.5 1.9-4.9 3.8-5.5 4.3-.5.4-2.3 1.9-4 3.3-1.6 1.4-5.7 4.6-9 7.2-3.3 2.5-6.2 4.9-6.5 5.2-.3.3-3.3 2.7-6.7 5.3-3.4 2.6-6.8 5.3-7.5 6-.7.6-5.2 4.3-10 8.2l-8.7 6.9.6 6.1c.8 8.3.8 30.5-.1 45-.4 6.6-.9 13.9-.9 16.2-.1 2.4-.4 4.3-.7 4.3-.3 0-.5 1.2-.6 2.7-.1 3.1-1.3 12-1.9 14.3-.2.8-.6 3.2-.9 5.2-.3 2.1-1.1 5.9-1.7 8.5-.6 2.7-1.3 5.9-1.5 7.3-.6 3-3.3 12.9-4.1 15-.3.8-.8 2.3-.9 3.2-1.8 8.7-14.8 37.5-23.2 51.3-21.2 34.4-49.5 59.8-89.2 79.9-17.8 9-46.4 19.8-61.5 23.2-.5.1-3.8.9-7.2 1.8-7 1.8-22.8 5.1-28.8 6-2.3.4-5.2.9-6.5 1.1-1.4.3-3.8.7-5.5 1-7.1 1-12.3 1.7-16 2.1-2.2.2-5.8.6-8 .9-32.8 4.2-100.4 5.4-117 2.1-1.1-.2-4.7-.7-8-1.1-3.2-.3-6.2-.8-6.5-1-.3-.2-2.1-.6-4-.9-3.1-.5-13.9-3.2-22.5-5.6-11.8-3.2-27.8-9.5-40.9-16.1-11.1-5.6-23.3-12.5-24-13.7-.2-.4 1.2-1.9 3.2-3.2 2-1.4 3.9-2.8 4.2-3.1.3-.3 1.5-1.2 2.8-1.8 1.3-.7 3.1-1.9 4-2.6.9-.8 6.2-4.7 11.7-8.7 5.5-4 10.2-7.5 10.5-7.8.3-.3 4.3-3.4 9-6.9 4.7-3.6 9.2-7.2 10.1-8 .9-.9 3.8-3.4 6.4-5.6 2.7-2.2 5.4-4.6 6.2-5.3.7-.7 1.3-1.1 1.3-.8 0 .2 7.8-7.3 17.3-16.7 16-15.9 27-27.8 30.6-33 .8-1.2 1.7-2.4 2-2.7 1.8-1.6 10.1-13 10.1-13.8 0-.6.4-1.2.8-1.4 1.8-.7 24.2-37.2 24.2-39.4 0-.3 1.8-4 3.9-8.4 2.2-4.3 3.7-8 3.5-8.3-.2-.2.2-1 1.1-1.7.8-.7 1.5-1.9 1.5-2.6 0-.8.4-2.2.9-3.2 2.1-3.7 12.7-32.9 13.5-36.7.1-.6.7-2.4 1.3-4 1.3-3.3 8.2-27.5 8.9-31.4.3-1.4.8-2.9 1.1-3.4.3-.6.7-2 .9-3.1.9-6.3 7.3-28.3 11.3-38.8 15.7-40.7 45-73.4 78.1-87.1 2.5-1.1 5.6-2.4 7-3 3-1.2 3.1-1.2 10-3.2 6.1-1.8 8.1-2.3 12.5-3.1 6.5-1.1 8.2-1.4 12.9-1.8 2.7-.3 5-.7 5.2-.8.3-.4 9.2-.1 23.9.6z"/><path d="M488.7 215.7c-.3.2-2.2.5-4.3.7-8.1.7-19.8 6.8-26.9 14.1-8.5 8.7-10.7 12.3-10.9 18.1-.2 7.6 5 13.1 12.9 13.6 3.2.2 8.6-3.6 12.6-8.8 5.5-7.2 14-12 21-11.8 6.1.1 10.9 1.3 14.1 3.5 1.4 1.1 2.9 1.9 3.2 1.9 1 0 4.6 3.9 4.6 5 0 .5.4 1 .9 1s1.3.9 1.6 2c1 3.1 7.4 7 11.5 7 6.9 0 13-6.1 13-13.1 0-10.2-16.7-26.3-32-31-6-1.8-20.3-3.3-21.3-2.2z"/></svg>